<svg xmlns="http://www.w3.org/2000/svg" viewBox="0 0 64 64" x="0px" y="0px" fill="white">
    <title>Artboard 24</title>
    <g data-name="LIne expanded">
        <path
            d="M60.76,39.43,53.69,20.82a.5.5,0,0,0-.64-.29l-7,2.65h0L41.22,25a.52.52,0,0,0-.29.65l.33.87a8.53,8.53,0,0,1-1.09.24,15.75,15.75,0,0,1-5.23-.9,3.29,3.29,0,0,0-2.19-.26l-.61.21c-2,.66-4.06,1.42-5,2.4-1.84,0-3.93.15-5,.24l.1-.33a.51.51,0,0,0,0-.38.52.52,0,0,0-.3-.24l-4.42-1.3.17-.6a.46.46,0,0,0,0-.38.45.45,0,0,0-.3-.24L9.46,22.76a.48.48,0,0,0-.61.34L3.23,42.19a.46.46,0,0,0,0,.38.48.48,0,0,0,.3.24L11.38,45l.13,0a.49.49,0,0,0,.48-.36l.65-2.19h0l.24-.81L17.3,43a.36.36,0,0,0,.14,0,.5.5,0,0,0,.48-.35l.23-.76a5.18,5.18,0,0,0,1,.69,1.54,1.54,0,0,0,.74.19,1.6,1.6,0,0,0,.53-.09,3.21,3.21,0,0,0,1.47-1.33l.24.13a2,2,0,0,0,.45,2.39,4.88,4.88,0,0,0,2.62,1.46,1.22,1.22,0,0,0,.38-.07,3.36,3.36,0,0,0,1.26,1.18,2.74,2.74,0,0,0,1.37.46,1.44,1.44,0,0,0,.46-.08l.08,0a3.15,3.15,0,0,0,2.56,1.39,2.6,2.6,0,0,0,.89-.15,4.27,4.27,0,0,0,1.3-.61,4,4,0,0,0,1.48.33,1.92,1.92,0,0,0,.88-.2,1.7,1.7,0,0,0,1-1.32,3.65,3.65,0,0,0,1.09.2A2.1,2.1,0,0,0,39.26,46a1.88,1.88,0,0,0,.79-1.81,2.75,2.75,0,0,0,1.11.26,1.81,1.81,0,0,0,.4,0,1.5,1.5,0,0,0,1.14-.83,1.82,1.82,0,0,0,.13-.8,2.05,2.05,0,0,0,.46.06,1.6,1.6,0,0,0,.63-.12,1.5,1.5,0,0,0,.8-.87,3.51,3.51,0,0,0-.42-2.64L45.62,38l.69,1.83a.51.51,0,0,0,.47.32l.18,0,2.6-1c.37,1.14,1.42,3.66,3.47,3.66h.26l.05,0h.08l7-2.65a.55.55,0,0,0,.28-.26A.55.55,0,0,0,60.76,39.43ZM11.17,43.92,4.33,42,9.67,23.85l6.84,1.94-4.69,16L7.67,40.57a.49.49,0,0,0-.61.34.5.5,0,0,0,.34.62l4.14,1.17ZM27.38,33.55h0a1.64,1.64,0,0,1-1-.09A.74.74,0,0,1,26,33c.17-.33.58-1.11.94-1.95a1.84,1.84,0,0,1,1.34.15.54.54,0,0,1,.22.47A3.06,3.06,0,0,1,27.38,33.55ZM17.11,41.88l-3.94-1.16,4-13.57,3.94,1.16-.16.54h0Zm3-.15a.57.57,0,0,1-.49,0,5,5,0,0,1-1.16-.87l.38-1.27,2.21,1.29A2.29,2.29,0,0,1,20.11,41.73Zm3.15,1.39s-.74-.63.08-1.73c.68-.9,1.21-1.23,1.71-1.23a1.67,1.67,0,0,1,.82.26c.89.5.76.75.7.87l-1,1.94a.55.55,0,0,0,0,.4c0,.09.17.53-.22.69S24,43.81,23.26,43.12Zm5.07,2.77c-.07,0-.35,0-.95-.31-.84-.5-1-.9-1-1a1.62,1.62,0,0,0,.14-1.09l.93-1.77h0a1.58,1.58,0,0,0,.13-.34.84.84,0,0,1,.95-.73,1,1,0,0,1,.7.6A2.51,2.51,0,0,1,29,43.57a3.81,3.81,0,0,0-.63,2.3Zm3.56,1.19a2.12,2.12,0,0,1-2.52-1.23,2.75,2.75,0,0,1,.41-1.64.93.93,0,0,1,1.26.3,3.3,3.3,0,0,1,.41,1.07,1.69,1.69,0,0,0,.94,1.31Zm11.89-5.55a.49.49,0,0,1-.25.3,1,1,0,0,1-.58,0A24.66,24.66,0,0,0,38,37.68c-2.55-1.53-4-2.5-4-2.51a.5.5,0,0,0-.57.82s1.45,1,4,2.55a22.65,22.65,0,0,1,4,3.18l0,.06a2,2,0,0,1,.31,1.42s-.09.2-.43.26a2.91,2.91,0,0,1-1.87-.67l-.08,0c-.45-.29-.95-.65-1.52-1.05a49.84,49.84,0,0,0-4.59-3,.5.5,0,0,0-.49.87,47.68,47.68,0,0,1,4.5,2.92c.56.39,1,.74,1.5,1,.16.3.56,1.19-.14,1.68s-2.41-.11-4.83-2c-.48-.38-1-.73-1.38-1a.51.51,0,0,0-.7.12.5.5,0,0,0,.12.7c.42.3.87.63,1.34,1a17.61,17.61,0,0,0,2.67,1.8c.1.4,0,.65-.46.87s-1.76-.24-2.12-.45h0A2.74,2.74,0,0,0,33,46c-.38-.13-.41-.24-.53-.71A4.3,4.3,0,0,0,31.89,44a1.77,1.77,0,0,0-1.62-.89,3.29,3.29,0,0,0-.12-2.24,2,2,0,0,0-1.47-1.17,1.71,1.71,0,0,0-1.5.47,3.89,3.89,0,0,0-.83-.62c-1.72-1-2.91.11-3.68,1.09l-3.54-2.07,2.67-9.09c.79-.07,2.84-.23,4.75-.27a17.64,17.64,0,0,1-1.5,3.47A.59.59,0,0,0,25,33a1.77,1.77,0,0,0,.9,1.35,3.21,3.21,0,0,0,2.79-.13,6.34,6.34,0,0,0,2.47-2.14c1.1-.11,1.85.3,3.54,1.24.72.4,1.61.9,2.74,1.46a17.44,17.44,0,0,1,5.83,4.67A3,3,0,0,1,43.78,41.53Zm-.06-3.12a18.54,18.54,0,0,0-5.84-4.53c-1.11-.56-2-1-2.7-1.44-1.58-.88-2.51-1.39-3.68-1.39a4.56,4.56,0,0,0-.72.06.47.47,0,0,0-.35.24,6.13,6.13,0,0,1-1.13,1.28,2.69,2.69,0,0,0,.22-.94,1.54,1.54,0,0,0-.64-1.3A2.57,2.57,0,0,0,27.36,30c.08-.24.15-.49.2-.71a.7.7,0,0,1,.11-.23l0,0c.7-.91,3.69-1.91,4.74-2.26l.63-.21c.35-.13.75,0,1.54.26a16.8,16.8,0,0,0,5.53.95,9.13,9.13,0,0,0,1.46-.3l1.78,4.66L45.23,37C44.91,37.27,44.32,37.82,43.72,38.41ZM46.3,37v0l-2-5.24-2.25-5.92,3.83-1.46,5,13.23L47.07,39Zm4.2,1.79.76-.28,1.21,3.18C51.39,41.18,50.75,39.53,50.5,38.74Zm3,2.87L46.82,23.94l6.11-2.3,6.71,17.67Zm2.08-2.28a1.46,1.46,0,1,0-1.47-1.46A1.46,1.46,0,0,0,55.61,39.33Zm0-1.92a.46.46,0,1,1-.47.46A.46.46,0,0,1,55.61,37.41Z" />
    </g>
</svg>