<svg xmlns="http://www.w3.org/2000/svg" data-name="Layer 1" viewBox="0 0 512 512" x="0px" y="0px" fill="white">
    <title>Dollar Label</title>
    <g data-name="Group">
        <path data-name="Compound Path"
            d="M372.905,53.105a8.073,8.073,0,0,0-6.268-3.1H283.689c-.319,0-.635-.8-.958-1.24-11.818-15.885-26.3-28.429-40.769-35.394-16.141-7.768-30.7-7.81-40.99-.151s-14.417,21.627-11.615,39.319a99.845,99.845,0,0,0,8.9,27.345l-26.627,33.7A7.915,7.915,0,0,0,170,118.552v70.791L90.017,414.661a7.936,7.936,0,0,0,4.792,10.213l223.119,79.108a7.937,7.937,0,0,0,2.667.462,8.206,8.206,0,0,0,7.537-5.547l28.6-80.9h57.808c4.418,0,8.458-3.146,8.458-7.564V118.552a8.351,8.351,0,0,0-1.961-5.01ZM205.16,50.041c-1.8-11.359.156-20.1,5.363-23.971s14.138-3.314,24.5,1.675C244.67,32.388,254.438,40,263.2,50h-37.5a8.073,8.073,0,0,0-6.268,3.1l-9.932,12.561A76.666,76.666,0,0,1,205.16,50.041Zm110.562,435.97L107.77,412.358,170,237.223V410.436A7.472,7.472,0,0,0,177.8,418H339.758ZM407,402H186V121.339L206.879,94.89c1.521,2.32,3.067,4.62,4.751,6.884,11.819,15.884,26.273,28.468,40.745,35.433a66.08,66.08,0,0,0,9.61,3.766,34.46,34.46,0,1,0,1.755-16.284c-1.45-.543-2.933-1.169-4.451-1.9-12.184-5.863-24.568-16.719-34.871-30.565a125.847,125.847,0,0,1-7.1-10.7L229.572,66h133.2L407,121.339ZM304.451,119.937a18.489,18.489,0,1,1-25.615,22.933,28.923,28.923,0,0,0,14.5-5.493C298.839,133.285,302.592,127.344,304.451,119.937Zm-20.663,4.6a11.658,11.658,0,0,1-2.939,1.56,18.629,18.629,0,0,1,6.546-5.923A12.555,12.555,0,0,1,283.788,124.541Z" />
        <path data-name="Path" d="M376.823,365h-161.3a8,8,0,1,0,0,16h161.3a8,8,0,0,0,0-16Z" />
        <path data-name="Path"
            d="M207.521,335a8,8,0,0,0,8,8h161.3a8,8,0,0,0,0-16h-161.3A8,8,0,0,0,207.521,335Z" />
        <path data-name="Path"
            d="M295,283.713a12.614,12.614,0,0,1-12.6-12.6,8,8,0,0,0-16,0A28.645,28.645,0,0,0,286,298.254V304a8,8,0,0,0,16,0v-5.157a28.6,28.6,0,0,0-7-56.328,12.6,12.6,0,1,1,12.6-12.6,8,8,0,0,0,16,0A28.648,28.648,0,0,0,302,202.187V198a8,8,0,0,0-16,0v4.776a28.6,28.6,0,0,0,9,55.739,12.6,12.6,0,1,1,0,25.2Z" />
    </g>
</svg>