<svg xmlns="http://www.w3.org/2000/svg" xmlns:xlink="http://www.w3.org/1999/xlink" version="1.1"
    x="0px" y="0px" viewBox="0 0 64 64" fill="white" style="enable-background:new 0 0 64 64;"
    xml:space="preserve"><g><path d="M63,27.414v-5.747L59.5,17H57v7h-4v-7h-2.5L47,21.667v5.747l4,4v17.172l-4,4v5.747L50.5,63H53v-7h4v7h2.5l3.5-4.667v-5.747   l-4-4V31.414L63,27.414z M61,53.414v4.253l-2,2.666V54h-8v6.333l-2-2.666v-4.253l4-4V30.586l-4-4v-4.253l2-2.666V26h8v-6.333   l2,2.666v4.253l-4,4v18.828L61,53.414z"/>
    <path d="M39.697,44.895L29,42.22v-2.239c2.197-1.656,3.694-4.188,3.954-7.077C35.256,32.456,37,30.43,37,28v-7v-1v-1   c0-6.689-4.718-12.29-11-13.668V4c0-1.654-1.346-3-3-3s-3,1.346-3,3v1.335C15.024,6.427,11.027,10.164,9.582,15H5   c-1.654,0-3,1.346-3,3s1.346,3,3,3h4v7c0,2.43,1.744,4.456,4.046,4.904c0.26,2.89,1.758,5.421,3.954,7.077v2.239L6.303,44.895   C3.181,45.674,1,48.466,1,51.685V63h44V51.685C45,48.466,42.819,45.674,39.697,44.895z M35,53.104V61H24v-5.519l5-4.001V50h1.566   l2.78-4.633l4.899,1.225l-1.712,2.139C35.545,49.968,35,51.521,35,53.104z M9.467,48.731l-1.712-2.139l4.899-1.225L15.434,50H17   v1.48l5,4.001V61H11v-7.896C11,51.521,10.455,49.968,9.467,48.731z M31.318,44.86L29.434,48H27v2.52l-3,2.399v-3.556l4.367-5.24   L31.318,44.86z M15,21h4.64c-1.327,1.065-2.938,1.748-4.64,1.941V21z M23,7.537l0.685,0.799c2.565,2.993,4.051,6.748,4.271,10.664   h-9.911c0.22-3.916,1.706-7.671,4.271-10.664L23,7.537z M22.461,21h2.179c-1.201,0.964-2.637,1.603-4.16,1.861   C21.211,22.328,21.877,21.706,22.461,21z M27.461,21h2.179c-1.201,0.964-2.637,1.603-4.16,1.861   C26.211,22.328,26.877,21.706,27.461,21z M33,30.816v-5.631c1.161,0.414,2,1.514,2,2.816S34.161,30.402,33,30.816z M35,24.026   c-0.584-0.442-1.257-0.773-2-0.924V21h2V24.026z M35,19h-5.045c-0.217-4.309-1.82-8.442-4.594-11.764C30.851,8.336,35,13.191,35,19   z M22,4c0-0.552,0.448-1,1-1s1,0.448,1,1v1.051C23.668,5.027,23.338,5,23,5c-0.337,0-0.669,0.018-1,0.042V4z M20.639,7.236   c-2.774,3.322-4.377,7.455-4.594,11.764H11C11,13.191,15.149,8.336,20.639,7.236z M4,18c0-0.552,0.448-1,1-1h4.143   C9.049,17.653,9,18.321,9,19H5C4.448,19,4,18.552,4,18z M13,21v2.101c-0.743,0.152-1.416,0.482-2,0.924V21H13z M11,28   c0-1.302,0.839-2.402,2-2.816v5.631C11.839,30.402,11,29.302,11,28z M15,32v-7.059c1.402-0.13,2.76-0.522,4-1.155V25   c1.754,0,3.467-0.431,5-1.215V25c2.567,0,5.047-0.916,7-2.522V32c0,4.411-3.589,8-8,8S15,36.411,15,32z M23,42   c1.422,0,2.774-0.303,4-0.841v1.478l-4,4.8l-4-4.8v-1.478C20.226,41.697,21.578,42,23,42z M17.633,44.122L22,49.363v3.556l-3-2.399   V48h-2.434l-1.884-3.14L17.633,44.122z M3,51.685c0-1.907,1.081-3.592,2.72-4.433l2.184,2.73C8.611,50.864,9,51.974,9,53.104V61H3   V51.685z M43,61h-6v-7.896c0-1.131,0.389-2.24,1.096-3.123l2.184-2.73c1.639,0.841,2.72,2.526,2.72,4.433V61z"/><circle cx="28" cy="27" r="1"/><circle cx="18" cy="27" r="1"/><path d="M23,37c2.206,0,4-1.794,4-4h-2c0,1.103-0.897,2-2,2s-2-0.897-2-2h-2C19,35.206,20.794,37,23,37z"/></g>
</svg>