<svg width="1092" height="334" viewBox="0 0 1092 334" fill="none" xmlns="http://www.w3.org/2000/svg">
    <circle cx="148" cy="169" r="115" fill="black" />
    <circle cx="148" cy="169" r="105" fill="black" />
    <circle cx="148" cy="169" r="96" fill="white" />
    <circle cx="148" cy="169" r="86" fill="black" />
    <rect x="98" y="67" width="100" height="204" fill="black" />
    <rect x="113" y="73" width="68" height="8" fill="black" />
    <rect x="114" y="259" width="68" height="8" fill="black" />
    <rect x="98" y="129" width="100" height="80" fill="white" />
    <rect x="98" y="139" width="100" height="60" fill="black" />
    <rect x="88" y="95" width="10" height="145" fill="white" />
    <rect x="198" y="95" width="10" height="145" fill="white" />
    <path
        d="M298.375 229V83.5455H361.443C372.523 83.5455 381.827 85.0369 389.355 88.0199C396.931 91.0028 402.636 95.2169 406.472 100.662C410.354 106.107 412.295 112.523 412.295 119.909C412.295 125.259 411.112 130.136 408.744 134.54C406.424 138.943 403.157 142.636 398.943 145.619C394.729 148.555 389.805 150.591 384.17 151.727V153.148C390.42 153.384 396.102 154.971 401.216 157.906C406.33 160.795 410.402 164.795 413.432 169.909C416.462 174.975 417.977 180.941 417.977 187.807C417.977 195.761 415.894 202.84 411.727 209.043C407.608 215.245 401.737 220.122 394.114 223.673C386.491 227.224 377.4 229 366.841 229H298.375ZM337.864 197.466H356.33C362.958 197.466 367.93 196.235 371.244 193.773C374.559 191.263 376.216 187.57 376.216 182.693C376.216 179.284 375.435 176.396 373.872 174.028C372.31 171.661 370.084 169.862 367.196 168.631C364.355 167.4 360.922 166.784 356.898 166.784H337.864V197.466ZM337.864 142.352H354.057C357.513 142.352 360.567 141.808 363.219 140.719C365.87 139.63 367.93 138.067 369.398 136.031C370.913 133.948 371.67 131.415 371.67 128.432C371.67 123.934 370.061 120.501 366.841 118.134C363.621 115.719 359.549 114.511 354.625 114.511H337.864V142.352ZM572.878 156.273C572.878 172.466 569.729 186.126 563.432 197.253C557.134 208.332 548.635 216.737 537.935 222.466C527.234 228.148 515.302 230.989 502.139 230.989C488.882 230.989 476.902 228.124 466.202 222.395C455.548 216.618 447.073 208.19 440.776 197.111C434.526 185.984 431.401 172.371 431.401 156.273C431.401 140.08 434.526 126.443 440.776 115.364C447.073 104.237 455.548 95.8324 466.202 90.1506C476.902 84.4214 488.882 81.5568 502.139 81.5568C515.302 81.5568 527.234 84.4214 537.935 90.1506C548.635 95.8324 557.134 104.237 563.432 115.364C569.729 126.443 572.878 140.08 572.878 156.273ZM532.253 156.273C532.253 147.561 531.093 140.222 528.773 134.256C526.5 128.242 523.115 123.697 518.616 120.619C514.166 117.494 508.673 115.932 502.139 115.932C495.605 115.932 490.089 117.494 485.591 120.619C481.14 123.697 477.755 128.242 475.435 134.256C473.162 140.222 472.026 147.561 472.026 156.273C472.026 164.985 473.162 172.348 475.435 178.361C477.755 184.327 481.14 188.872 485.591 191.997C490.089 195.075 495.605 196.614 502.139 196.614C508.673 196.614 514.166 195.075 518.616 191.997C523.115 188.872 526.5 184.327 528.773 178.361C531.093 172.348 532.253 164.985 532.253 156.273ZM669.558 129C669.179 124.265 667.403 120.572 664.231 117.92C661.106 115.269 656.347 113.943 649.955 113.943C645.883 113.943 642.545 114.44 639.941 115.435C637.384 116.382 635.49 117.684 634.259 119.341C633.028 120.998 632.389 122.892 632.342 125.023C632.247 126.775 632.555 128.361 633.265 129.781C634.022 131.154 635.206 132.409 636.816 133.545C638.426 134.634 640.486 135.629 642.995 136.528C645.505 137.428 648.487 138.233 651.944 138.943L663.876 141.5C671.925 143.205 678.814 145.454 684.543 148.247C690.272 151.041 694.96 154.331 698.606 158.119C702.252 161.86 704.927 166.074 706.631 170.761C708.383 175.449 709.283 180.562 709.33 186.102C709.283 195.667 706.892 203.763 702.157 210.392C697.422 217.021 690.651 222.063 681.844 225.52C673.085 228.976 662.55 230.705 650.239 230.705C637.597 230.705 626.565 228.834 617.143 225.094C607.768 221.353 600.476 215.6 595.268 207.835C590.107 200.023 587.503 190.032 587.455 177.864H624.955C625.192 182.314 626.305 186.055 628.293 189.085C630.282 192.116 633.076 194.412 636.674 195.974C640.32 197.537 644.652 198.318 649.671 198.318C653.885 198.318 657.413 197.797 660.254 196.756C663.094 195.714 665.249 194.27 666.717 192.423C668.184 190.577 668.942 188.47 668.989 186.102C668.942 183.877 668.208 181.936 666.788 180.278C665.415 178.574 663.142 177.059 659.969 175.733C656.797 174.36 652.512 173.081 647.114 171.898L632.626 168.773C619.747 165.979 609.591 161.315 602.157 154.781C594.771 148.2 591.101 139.227 591.148 127.864C591.101 118.631 593.563 110.558 598.535 103.645C603.554 96.6847 610.49 91.2633 619.344 87.3807C628.246 83.4981 638.45 81.5568 649.955 81.5568C661.698 81.5568 671.854 83.5218 680.424 87.4517C688.994 91.3816 695.599 96.9214 700.239 104.071C704.927 111.173 707.294 119.483 707.342 129H669.558ZM860.147 138.091H820.09C819.806 134.777 819.049 131.77 817.817 129.071C816.634 126.372 814.977 124.052 812.846 122.111C810.763 120.122 808.229 118.607 805.246 117.565C802.263 116.476 798.878 115.932 795.09 115.932C788.461 115.932 782.851 117.542 778.258 120.761C773.712 123.981 770.256 128.598 767.888 134.611C765.568 140.624 764.408 147.845 764.408 156.273C764.408 165.174 765.592 172.632 767.96 178.645C770.374 184.611 773.854 189.109 778.4 192.139C782.945 195.122 788.414 196.614 794.806 196.614C798.452 196.614 801.719 196.164 804.607 195.264C807.496 194.317 810.005 192.968 812.136 191.216C814.266 189.464 815.995 187.357 817.32 184.895C818.693 182.385 819.617 179.568 820.09 176.443L860.147 176.727C859.674 182.883 857.945 189.156 854.962 195.548C851.979 201.893 847.742 207.764 842.249 213.162C836.804 218.512 830.057 222.821 822.008 226.088C813.959 229.355 804.607 230.989 793.954 230.989C780.602 230.989 768.622 228.124 758.016 222.395C747.458 216.666 739.101 208.238 732.945 197.111C726.837 185.984 723.783 172.371 723.783 156.273C723.783 140.08 726.908 126.443 733.158 115.364C739.408 104.237 747.836 95.8324 758.442 90.1506C769.049 84.4214 780.886 81.5568 793.954 81.5568C803.139 81.5568 811.591 82.8115 819.309 85.321C827.027 87.8305 833.798 91.5 839.621 96.3295C845.445 101.112 850.133 107.007 853.684 114.014C857.235 121.022 859.389 129.047 860.147 138.091ZM878.062 229V83.5455H917.551V140.364H969.824V83.5455H1009.31V229H969.824V172.182H917.551V229H878.062Z"
        fill="white" />
</svg>
    